<svg xmlns="http://www.w3.org/2000/svg" width="256" height="256" viewBox="0 0 100 100"><rect width="100" height="100" rx="20" fill="#473c38"></rect><path fill="#fff" d="M14.77 56.18L14.77 69.95Q14.77 71.33 15.15 72.21Q15.53 73.09 16.22 73.58Q16.91 74.08 17.91 74.27Q18.90 74.46 20.16 74.49L20.16 74.49L20.16 78.80Q17.93 78.77 16.06 78.29Q14.18 77.80 12.82 76.79Q11.46 75.78 10.68 74.20Q9.91 72.62 9.91 70.36L9.91 70.36L9.91 56.53Q9.91 53.57 8.02 52.34Q6.13 51.11 2.55 51.11L2.55 51.11L2.55 46.66Q6.13 46.66 8.02 45.43Q9.91 44.20 9.91 41.24L9.91 41.24L9.91 27.38Q9.91 25.16 10.68 23.57Q11.46 21.99 12.82 20.98Q14.18 19.97 16.06 19.49Q17.93 19.00 20.16 18.97L20.16 18.97L20.16 23.25Q18.90 23.28 17.91 23.47Q16.91 23.66 16.22 24.16Q15.53 24.66 15.15 25.54Q14.77 26.42 14.77 27.79L14.77 27.79L14.77 41.59Q14.77 44.61 13.16 46.38Q11.55 48.15 8.44 48.74L8.44 48.74L8.44 49.06Q11.55 49.65 13.16 51.39Q14.77 53.13 14.77 56.18L14.77 56.18ZM7.33 31.54L7.33 31.54ZM7.18 15.08L7.18 15.08ZM13.95 84.92L13.95 84.92ZM41.23 65.76L41.23 68.87L25.76 68.87L25.76 65.76L30.80 64.62L30.80 30.34L25.76 29.14L25.76 26.04L41.23 26.04L41.23 29.14L36.19 30.34L36.19 64.62L41.23 65.76ZM73.80 57.41L73.80 57.41Q73.80 63.01 69.76 66.23Q65.72 69.45 58.51 69.45L58.51 69.45Q50.89 69.45 46.73 67.43L46.73 67.43L46.73 62.28Q49.46 63.45 52.70 64.12Q55.93 64.79 58.75 64.79L58.75 64.79Q63.55 64.79 65.98 62.95Q68.41 61.10 68.41 57.88L68.41 57.88Q68.41 55.74 67.53 54.37Q66.66 52.99 64.59 51.79Q62.52 50.59 58.33 49.06L58.33 49.06Q52.39 46.89 49.84 43.95Q47.29 41.01 47.29 36.35L47.29 36.35Q47.29 31.34 51.05 28.38Q54.82 25.42 60.97 25.42L60.97 25.42Q67.39 25.42 72.78 27.82L72.78 27.82L71.11 32.45Q65.60 30.17 60.85 30.17L60.85 30.17Q57.05 30.17 54.89 31.81Q52.74 33.45 52.74 36.41L52.74 36.41Q52.74 38.52 53.57 39.91Q54.41 41.30 56.27 42.44Q58.13 43.58 62.11 45.05L62.11 45.05Q66.89 46.81 69.23 48.46Q71.58 50.12 72.69 52.27Q73.80 54.42 73.80 57.41ZM85.20 69.95L85.20 56.18Q85.20 53.13 86.81 51.39Q88.42 49.65 91.56 49.06L91.56 49.06L91.56 48.74Q88.42 48.15 86.81 46.38Q85.20 44.61 85.20 41.59L85.20 41.59L85.20 27.79Q85.20 26.42 84.83 25.54Q84.47 24.66 83.78 24.16Q83.09 23.66 82.08 23.47Q81.07 23.28 79.84 23.25L79.84 23.25L79.84 18.97Q82.04 19.00 83.93 19.49Q85.82 19.97 87.18 20.98Q88.54 21.99 89.32 23.57Q90.09 25.16 90.09 27.38L90.09 27.38L90.09 41.24Q90.09 42.73 90.56 43.76Q91.03 44.79 91.97 45.43Q92.91 46.07 94.28 46.37Q95.66 46.66 97.45 46.66L97.45 46.66L97.45 51.11Q93.84 51.11 91.97 52.34Q90.09 53.57 90.09 56.53L90.09 56.53L90.09 70.36Q90.09 72.62 89.32 74.20Q88.54 75.78 87.18 76.79Q85.82 77.80 83.93 78.29Q82.04 78.77 79.84 78.80L79.84 78.80L79.84 74.49Q81.07 74.46 82.08 74.27Q83.09 74.08 83.78 73.58Q84.47 73.09 84.83 72.21Q85.20 71.33 85.20 69.95L85.20 69.95ZM92.82 31.54L92.82 31.54ZM92.67 15.08L92.67 15.08ZM90.65 84.92L90.65 84.92Z"></path></svg>